<svg id="_x31__px" height="512" viewBox="0 0 24 24" width="512" xmlns="http://www.w3.org/2000/svg"><path d="m22.5 21h-21c-.827 0-1.5-.673-1.5-1.5v-14c0-.827.673-1.5 1.5-1.5h7c.276 0 .5.224.5.5s-.224.5-.5.5h-7c-.275 0-.5.225-.5.5v14c0 .275.225.5.5.5h21c.275 0 .5-.225.5-.5v-5c0-.276.224-.5.5-.5s.5.224.5.5v5c0 .827-.673 1.5-1.5 1.5z"/><path d="m15.5 24h-7c-.202 0-.385-.122-.462-.309s-.034-.402.108-.545c1.316-1.316 1.334-2.59 1.334-2.644.001-.274.225-.502.5-.502h4.02c.275 0 .498.223.5.497.001.063.04 1.336 1.354 2.649.143.143.186.358.108.545s-.26.309-.462.309zm-5.93-1h4.857c-.561-.801-.782-1.537-.87-2h-3.13c-.083.465-.3 1.2-.857 2zm4.93-2.5h.01z"/><path d="m23.5 18h-23c-.276 0-.5-.224-.5-.5s.224-.5.5-.5h23c.276 0 .5.224.5.5s-.224.5-.5.5z"/><path d="m17 14c-3.859 0-7-3.141-7-7s3.141-7 7-7 7 3.141 7 7-3.141 7-7 7zm0-13c-3.309 0-6 2.691-6 6s2.691 6 6 6 6-2.691 6-6-2.691-6-6-6z"/><path d="m17.5 10.5h-2.5c-.276 0-.5-.224-.5-.5s.224-.5.5-.5h2.5c.552 0 1-.448 1-1s-.448-1-1-1h-1c-1.103 0-2-.897-2-2s.897-2 2-2h2.5c.276 0 .5.224.5.5s-.224.5-.5.5h-2.5c-.552 0-1 .448-1 1s.448 1 1 1h1c1.103 0 2 .897 2 2s-.897 2-2 2z"/><path d="m17 12c-.276 0-.5-.224-.5-.5v-1.5c0-.276.224-.5.5-.5s.5.224.5.5v1.5c0 .276-.224.5-.5.5z"/><path d="m17 4.5c-.276 0-.5-.224-.5-.5v-1.5c0-.276.224-.5.5-.5s.5.224.5.5v1.5c0 .276-.224.5-.5.5z"/></svg>