<svg height="512pt" viewBox="0 0 512 512.00075" width="512pt" xmlns="http://www.w3.org/2000/svg"><path d="m100 128.285156-65.855469 65.859375c-7.8125 7.808594-20.476562 7.808594-28.285156 0-7.8125-7.8125-7.8125-20.476562 0-28.285156l65.855469-65.859375-65.855469-65.855469c-7.8125-7.8125-7.8125-20.476562 0-28.285156 7.808594-7.8125 20.472656-7.8125 28.285156 0l65.855469 65.855469 65.859375-65.855469c7.808594-7.8125 20.472656-7.8125 28.285156 0 7.808594 7.808594 7.808594 20.472656 0 28.285156l-65.859375 65.855469 65.859375 65.855469c7.808594 7.8125 7.808594 20.476562 0 28.285156-7.8125 7.8125-20.476562 7.8125-28.285156 0zm340.285156 283.714844 65.859375-65.855469c7.808594-7.8125 7.808594-20.476562 0-28.285156-7.8125-7.8125-20.476562-7.8125-28.285156 0l-65.859375 65.855469-65.855469-65.855469c-7.8125-7.8125-20.476562-7.8125-28.285156 0-7.8125 7.808594-7.8125 20.472656 0 28.285156l65.855469 65.855469-65.855469 65.855469c-7.8125 7.8125-7.8125 20.476562 0 28.285156 7.808594 7.8125 20.472656 7.8125 28.285156 0l65.855469-65.855469 65.859375 65.859375c7.808594 7.808594 20.472656 7.808594 28.285156 0 7.808594-7.8125 7.808594-20.476562 0-28.285156zm-8.285156-312v-31.714844l19.597656 19.597656c7.808594 7.808594 20.476563 7.8125 28.285156 0 7.8125-7.8125 7.8125-20.472656 0-28.285156l-53.738281-53.738281c-7.867187-7.867187-20.605469-7.683594-28.285156 0l-53.742187 53.738281c-7.808594 7.8125-7.808594 20.476563 0 28.285156 7.8125 7.808594 20.476562 7.8125 28.285156 0l19.597656-19.597656v31.714844c0 74.992188-61.007812 136-136 136-97.046875 0-176 78.953125-176 176v80c0 11.046875 8.953125 20 20 20s20-8.953125 20-20v-80c0-74.988281 61.011719-136 136-136 97.046875 0 176-78.953125 176-176zm0 0"/></svg>